<svg fill="none" height="9" viewBox="0 0 12 9" width="12" xmlns="http://www.w3.org/2000/svg"><path d="m6 0c-2.72727 0-5.056364 1.69636-6 4.09091.943636 2.39455 3.27273 4.09091 6 4.09091s5.0564-1.69636 6-4.09091c-.9436-2.39455-3.27273-4.09091-6-4.09091zm0 6.81818c-1.50545 0-2.72727-1.22182-2.72727-2.72727 0-1.50546 1.22182-2.72727 2.72727-2.72727s2.72727 1.22181 2.72727 2.72727c0 1.50545-1.22182 2.72727-2.72727 2.72727zm0-4.36363c-.90545 0-1.63636.73091-1.63636 1.63636s.73091 1.63636 1.63636 1.63636 1.63636-.73091 1.63636-1.63636-.73091-1.63636-1.63636-1.63636z" fill="#fff"/></svg>